<svg id="Layer_1" data-name="Layer 1" xmlns="http://www.w3.org/2000/svg" viewBox="0 0 24 19.5"><defs><style>.cls-1{fill:#fff;}</style></defs><title>twitterwhite</title><path class="cls-1" d="M21.54,7.14c0,.21,0,.42,0,.63a13.9,13.9,0,0,1-14,14A14,14,0,0,1,0,19.54a9.18,9.18,0,0,0,1.17.07,9.92,9.92,0,0,0,6.1-2.1,4.94,4.94,0,0,1-4.6-3.42,5.5,5.5,0,0,0,.91.08A5,5,0,0,0,4.88,14a4.92,4.92,0,0,1-4-4.82V9.12a5,5,0,0,0,2.23.61A4.9,4.9,0,0,1,1,5.64a4.79,4.79,0,0,1,.67-2.48A14,14,0,0,0,11.78,8.29a5.22,5.22,0,0,1-.13-1.13A4.92,4.92,0,0,1,20.16,3.8a9.84,9.84,0,0,0,3.13-1.18,5,5,0,0,1-2.16,2.72A9.9,9.9,0,0,0,24,4.57l0,0A9.94,9.94,0,0,1,21.54,7.14Z" transform="translate(0 -2.25)"/></svg>