<svg id="Layer_1" data-name="Layer 1" xmlns="http://www.w3.org/2000/svg" viewBox="0 0 24.99 17.77"><defs><style>.cls-1{fill:red;stroke:#000;stroke-miterlimit:10;}</style></defs><title>youtubehover</title><path class="cls-1" d="M23.5,6.2a3,3,0,0,0-2.09-2.09c-1.87-.5-9.4-.5-9.4-.5s-7.51,0-9.4.5A3,3,0,0,0,.53,6.2,31.25,31.25,0,0,0,0,12a31.25,31.25,0,0,0,.52,5.78,3,3,0,0,0,2.09,2.09c1.87.5,9.4.5,9.4.5s7.51,0,9.4-.5a3,3,0,0,0,2.09-2.09A31.25,31.25,0,0,0,24,12,31.25,31.25,0,0,0,23.5,6.2ZM9.61,15.6V8.41L15.87,12Z" transform="translate(0.5 -3.12)"/></svg>